<?xml version="1.0"?>
<svg xmlns="http://www.w3.org/2000/svg" viewBox="0 0 80 80">
    <path style="line-height:normal;text-indent:0;text-align:start;text-decoration-line:none;text-decoration-style:solid;text-decoration-color:#000;text-transform:none;block-progression:tb;isolation:auto;mix-blend-mode:normal" d="M 33.941406 7.9980469 A 1.0001 1.0001 0 0 0 33.859375 9.9902344 C 33.859375 9.9902344 34.395452 10.072336 34.945312 10.367188 C 35.302068 10.558488 35.598216 10.796176 35.791016 11.138672 C 30.671097 12.12356 26.59543 14.572754 23.820312 17.003906 C 22.345985 18.295499 21.233937 19.572288 20.5 20.654297 C 20.133032 21.195301 19.860735 21.683891 19.681641 22.140625 C 19.502546 22.597359 19.292536 23.020727 19.595703 23.691406 C 20.11283 24.83448 21.242396 25.14467 22.074219 25.308594 C 22.573951 25.407074 22.722022 25.384651 23.011719 25.394531 L 24.339844 27.625 C 24.466859 29.538032 24.752136 31.037712 24.916016 31.769531 C 24.359211 32.278599 24 32.995079 24 33.800781 C 24 34.450638 24.193614 35.00244 24.353516 35.546875 C 24.433466 35.819092 24.510374 36.073356 24.5625 36.265625 C 24.61463 36.457894 24.625 36.643858 24.625 36.5 C 24.625 37.860791 25.765491 38.921144 27.107422 38.96875 C 27.293334 42.845683 29.15905 46.267297 32 48.521484 L 32 52.251953 C 30.556671 52.688899 27.096375 53.80654 23.572266 55.470703 C 21.274343 56.555833 18.960465 57.863796 17.160156 59.414062 C 15.359847 60.964329 14 62.821429 14 65 L 14 71 L 66 71 L 66 65 C 66 62.821429 64.640153 60.964331 62.839844 59.414062 C 61.039535 57.863796 58.725657 56.555833 56.427734 55.470703 C 52.903625 53.80654 49.443329 52.688899 48 52.251953 L 48 48.523438 C 50.840936 46.268284 52.706661 42.845831 52.892578 38.96875 C 54.234907 38.921144 55.375 37.860791 55.375 36.5 C 55.375 36.643858 55.38537 36.45789 55.4375 36.265625 C 55.48963 36.073356 55.566533 35.819092 55.646484 35.546875 C 55.806386 35.00244 56 34.450638 56 33.800781 C 56 32.982223 55.628876 32.256349 55.056641 31.746094 C 55.240472 30.693073 56 26.177353 56 23 C 56 21.723358 55.835952 20.573486 55.537109 19.550781 L 55.533203 19.552734 L 55.304688 17.65625 C 55.575629 17.536107 55.663168 17.527399 56.025391 17.308594 C 56.390579 17.087997 56.769692 16.824216 57.097656 16.451172 C 57.425621 16.078127 57.744321 15.497613 57.625 14.822266 C 57.53333 14.303863 57.28461 14.045027 57 13.757812 C 56.71539 13.4706 56.355126 13.193211 55.902344 12.912109 C 54.996779 12.349905 53.721795 11.782114 52.033203 11.320312 C 50.344612 10.858512 48.245432 10.507037 45.707031 10.400391 C 43.440444 10.305163 40.802413 10.422119 37.818359 10.814453 C 37.45257 9.7253546 36.620037 8.9965993 35.890625 8.6054688 C 34.994736 8.1250687 34.140625 8.0097656 34.140625 8.0097656 A 1.0001 1.0001 0 0 0 33.941406 7.9980469 z M 43.738281 12.369141 C 44.394933 12.363283 45.022921 12.373201 45.623047 12.398438 C 48.023552 12.499383 49.975326 12.831426 51.505859 13.25 C 53.036393 13.668574 54.147565 14.176688 54.847656 14.611328 C 55.190261 14.824028 55.427856 15.018493 55.564453 15.154297 C 55.451656 15.274651 55.239242 15.445287 54.990234 15.595703 C 54.46536 15.91276 53.882814 16.132814 53.882812 16.132812 L 53.632812 16.224609 L 53.492188 16.101562 L 53.138672 16.076172 L 53.041016 16.087891 L 52.287109 16.572266 L 52.222656 17.464844 L 52.900391 18.050781 L 53.253906 18.076172 L 53.339844 18.066406 L 53.474609 19.191406 L 25.40625 25.509766 L 24.435547 23.880859 L 25.158203 24.261719 L 25.507812 24.207031 L 25.601562 24.173828 L 26.226562 23.53125 L 26.087891 22.646484 L 25.294922 22.228516 L 24.947266 22.283203 L 24.851562 22.316406 L 24.226562 22.957031 L 24.349609 23.736328 L 24.173828 23.439453 L 23.589844 23.453125 C 23.589844 23.453125 23.043615 23.460525 22.460938 23.345703 C 21.94351 23.243736 21.643521 23.030325 21.535156 22.919922 C 21.540956 22.896882 21.532569 22.897704 21.542969 22.871094 C 21.640789 22.62162 21.846718 22.230793 22.154297 21.777344 C 22.769454 20.870446 23.783125 19.695345 25.138672 18.507812 C 27.849765 16.132748 31.923589 13.703859 37.048828 12.929688 C 39.541993 12.553224 41.768325 12.386714 43.738281 12.369141 z M 49.044922 16.556641 L 48.945312 16.570312 L 48.203125 17.070312 L 48.160156 17.966797 L 48.851562 18.535156 L 49.205078 18.552734 L 49.302734 18.539062 L 50.044922 18.039062 L 50.087891 17.142578 L 49.396484 16.574219 L 49.044922 16.556641 z M 44.964844 17.201172 L 44.865234 17.216797 L 44.138672 17.742188 L 44.125 18.638672 L 44.833984 19.185547 L 45.185547 19.191406 L 45.285156 19.175781 L 46.011719 18.652344 L 46.025391 17.755859 L 45.316406 17.207031 L 44.964844 17.201172 z M 41.253906 17.972656 L 40.902344 17.978516 L 40.804688 17.998047 L 40.097656 18.548828 L 40.115234 19.445312 L 40.84375 19.966797 L 41.195312 19.958984 L 41.294922 19.939453 L 42.001953 19.388672 L 41.982422 18.494141 L 41.253906 17.972656 z M 37.222656 18.861328 L 36.871094 18.880859 L 36.773438 18.902344 L 36.083984 19.476562 L 36.130859 20.371094 L 36.875 20.869141 L 37.226562 20.849609 L 37.324219 20.828125 L 38.013672 20.253906 L 37.966797 19.359375 L 37.222656 18.861328 z M 33.220703 19.869141 L 32.869141 19.896484 L 32.773438 19.921875 L 32.099609 20.515625 L 32.171875 21.408203 L 32.931641 21.884766 L 33.283203 21.855469 L 33.378906 21.830078 L 34.050781 21.238281 L 33.978516 20.345703 L 33.220703 19.869141 z M 29.251953 20.988281 L 28.900391 21.025391 L 28.804688 21.052734 L 28.148438 21.664062 L 28.244141 22.554688 L 29.013672 23.011719 L 29.365234 22.972656 L 29.460938 22.945312 L 30.117188 22.335938 L 30.021484 21.445312 L 29.251953 20.988281 z M 53.847656 21.158203 C 53.942216 21.722261 54 22.330529 54 23 C 54 25.790852 53.334261 29.861149 53.142578 31.001953 C 53.136589 31.001916 53.130997 31 53.125 31 C 53.04092 31 53.05559 31.020744 53 31.027344 L 53 29.679688 C 53 26.257807 51.601408 23.953459 50.195312 22.591797 C 50.01162 22.413909 49.827011 22.252788 49.644531 22.103516 L 53.847656 21.158203 z M 46.888672 22.724609 C 47.143816 22.824479 47.885102 23.138771 48.804688 24.029297 C 49.898592 25.088635 51 26.785568 51 29.679688 L 51 34.304688 L 52.505859 33.423828 C 52.763271 33.273148 53.000659 33.139974 53.167969 33.054688 C 53.189159 33.043886 53.194211 33.042323 53.212891 33.033203 C 53.672602 33.079607 54 33.399535 54 33.800781 C 54 33.875921 53.881114 34.462857 53.728516 34.982422 C 53.652216 35.242205 53.572875 35.502206 53.507812 35.742188 C 53.442751 35.982169 53.375 36.146642 53.375 36.5 C 53.375 36.764393 53.156381 37 52.8125 37 L 51 37 L 51 38.367188 C 51 43.789366 47.089008 48.269071 41.941406 49.1875 L 41.658203 49.236328 L 41.443359 49.431641 C 41.05178 49.78762 40.558016 50 40 50 C 39.441984 50 38.948039 49.788155 38.556641 49.431641 L 38.34375 49.236328 L 38.058594 49.185547 C 32.911121 48.268058 29 43.789367 29 38.367188 L 29 37 L 27.1875 37 C 26.845222 37 26.625 36.764393 26.625 36.5 C 26.625 36.146642 26.55725 35.982169 26.492188 35.742188 C 26.427128 35.502206 26.347783 35.242205 26.271484 34.982422 C 26.118886 34.462857 26 33.875925 26 33.800781 C 26 33.399535 26.3274 33.079612 26.787109 33.033203 C 26.805789 33.042303 26.810841 33.043886 26.832031 33.054688 C 26.999341 33.139978 27.236729 33.273148 27.494141 33.423828 L 29 34.304688 L 29 30.970703 C 29 28.893089 29.86539 27.403831 31.119141 26.273438 L 46.888672 22.724609 z M 28.041016 26.966797 C 27.403053 28.104923 27 29.440264 27 30.970703 L 27 31.027344 C 26.94441 31.020744 26.959078 31 26.875 31 C 26.851013 31 26.828558 31.007225 26.804688 31.007812 C 26.648847 30.268788 26.422969 28.988592 26.324219 27.353516 L 28.041016 26.966797 z M 34.5 30 C 34.5 30 32 33.119 32 34.5 C 32 35.881 34.5 39 34.5 39 C 34.5 39 37 35.881 37 34.5 C 37 33.119 34.5 30 34.5 30 z M 45.5 30 C 45.5 30 43 33.119 43 34.5 C 43 35.881 45.5 39 45.5 39 C 45.5 39 48 35.881 48 34.5 C 48 33.119 45.5 30 45.5 30 z M 34.5 33 C 35.328 33 36 33.672 36 34.5 C 36 35.328 35.328 36 34.5 36 C 33.672 36 33 35.328 33 34.5 C 33 33.672 33.672 33 34.5 33 z M 45.5 33 C 46.328 33 47 33.672 47 34.5 C 47 35.328 46.328 36 45.5 36 C 44.672 36 44 35.328 44 34.5 C 44 33.672 44.672 33 45.5 33 z M 40 42 C 37.887 42 36 44 36 44 L 44 44 C 44 44 42.113 42 40 42 z M 34 49.822266 C 35.067809 50.38466 36.219942 50.812398 37.443359 51.058594 C 38.147243 51.620412 39.022065 52 40 52 C 40.973713 52 41.842622 51.620911 42.544922 51.064453 C 43.772571 50.818443 44.928862 50.390557 46 49.826172 L 46 53.685547 C 45.877204 53.930494 44.295038 57 40 57 C 35.704962 57 34.122796 53.930494 34 53.685547 L 34 49.822266 z M 32.050781 54.337891 L 32.105469 54.447266 C 32.105469 54.447266 32.80245 55.777553 34.310547 57 L 25.058594 57 C 27.882053 55.716923 30.567291 54.803162 32.050781 54.337891 z M 47.949219 54.337891 C 49.432709 54.803162 52.117947 55.716923 54.941406 57 L 45.689453 57 C 47.19755 55.777553 47.894531 54.447266 47.894531 54.447266 L 47.949219 54.337891 z M 21.189453 59 L 58.810547 59 C 59.820574 59.609202 60.753574 60.256658 61.535156 60.929688 C 61.562268 60.953034 61.580717 60.976633 61.607422 61 L 18.392578 61 C 18.419283 60.976633 18.437732 60.953034 18.464844 60.929688 C 19.246426 60.256658 20.179426 59.609202 21.189453 59 z M 16.630859 63 L 63.369141 63 C 63.779985 63.67561 64 64.346251 64 65 L 16 65 C 16 64.346251 16.220015 63.67561 16.630859 63 z M 16 67 L 64 67 L 64 69 L 16 69 L 16 67 z"/>
</svg>
